<svg width="189" height="203" viewBox="0 0 189 203" fill="none" xmlns="http://www.w3.org/2000/svg">
<path opacity="0.1" d="M171.73 123.96C171.73 164.19 144.2 202.96 103.97 202.96C84.6489 202.96 66.1193 195.285 52.4573 181.623C38.7952 167.961 31.12 149.431 31.12 130.11C31.12 110.789 38.7952 92.2593 52.4573 78.5973C66.1193 64.9352 84.6489 57.26 103.97 57.26C144.2 57.3 171.73 83.72 171.73 123.96Z" fill="black"/>
<path d="M103.97 201C144.204 201 176.82 168.384 176.82 128.15C176.82 87.916 144.204 55.3 103.97 55.3C63.736 55.3 31.12 87.916 31.12 128.15C31.12 168.384 63.736 201 103.97 201Z" fill="#AE6E79"/>
<path d="M97.57 95.87C106.24 99.06 111.37 108.02 119.15 113.01C130.15 120.01 144.47 118.2 157.03 114.74C164.03 112.83 171.35 110.5 178.24 112.62C179.253 113.069 180.371 113.228 181.47 113.08C182.97 112.65 183.71 110.99 184.2 109.51C192.72 84.11 188.89 55.34 176.03 31.84C172.71 25.78 168.73 19.92 163.25 15.71C158.93 12.4 153.85 10.23 148.73 8.38002C139.373 5.01956 129.696 2.63032 119.85 1.25001C118.111 0.934097 116.335 0.876829 114.58 1.08003C112.17 1.47003 110.01 2.77001 107.86 3.93001C98.6518 8.86614 88.4401 11.6397 78 12.04C64 12.57 48 9.27002 37.21 18.25C24.21 29.02 27.45 50.03 19.02 64.65C13.44 74.32 2.67998 81.34 0.909977 92.35C0.449064 95.7152 0.663238 99.1385 1.53998 102.42C5.65998 119.36 22.06 132.48 39.54 132.79C42.2244 132.995 44.9125 132.444 47.3 131.2C48.8643 130.133 50.2455 128.819 51.39 127.31C62.84 113.75 75.94 87.91 97.57 95.87Z" fill="#444053"/>
<path opacity="0.1" d="M184.2 102.14C183.71 103.62 182.97 105.28 181.47 105.71C180.371 105.858 179.253 105.699 178.24 105.25C171.35 103.13 163.99 105.46 157.04 107.37C144.47 110.83 130.12 112.68 119.16 105.64C111.37 100.64 106.25 91.64 97.57 88.5C75.94 80.5 62.84 106.38 51.36 119.94C50.2155 121.449 48.8343 122.763 47.27 123.83C44.8825 125.074 42.1944 125.625 39.51 125.42C22.09 125.11 5.68001 111.99 1.51001 95.05C1.28001 94.05 1.08 93.05 0.929996 92.05C0.929996 92.14 0.930009 92.22 0.880009 92.31C0.419096 95.6752 0.63327 99.0985 1.51001 102.38C5.63001 119.32 22.04 132.44 39.51 132.75C42.1944 132.955 44.8825 132.404 47.27 131.16C48.8343 130.093 50.2155 128.779 51.36 127.27C62.84 113.71 75.94 87.87 97.57 95.83C106.25 99.02 111.37 107.98 119.16 112.97C130.16 119.97 144.47 118.16 157.04 114.7C164.04 112.79 171.35 110.46 178.24 112.58C179.253 113.029 180.371 113.188 181.47 113.04C182.97 112.61 183.71 110.95 184.2 109.47C187.637 99.0771 189.155 88.146 188.68 77.21C188.386 85.6914 186.877 94.0868 184.2 102.14V102.14Z" fill="black"/>
</svg>
