<svg width="338" height="96" viewBox="0 0 338 96" fill="none" xmlns="http://www.w3.org/2000/svg">
<path d="M258.94 5.25997C246.66 10.01 234.31 14.78 221.45 17.61C199.89 22.36 177.33 21.61 155.94 27.04C144.64 29.92 133.41 34.56 121.8 33.62C116.61 33.2 111.6 31.62 106.55 30.42C78.18 23.42 45.93 25.69 22.89 43.69C15.01 49.84 8.56005 57.51 2.71005 65.69C1.45824 67.4568 0.61217 69.4783 0.232391 71.6101C-0.147388 73.7418 -0.0515476 75.9312 0.513091 78.0216C1.07773 80.112 2.09725 82.0518 3.49869 83.7025C4.90013 85.3531 6.6489 86.6737 8.62002 87.57C17.5801 91.6905 27.1781 94.2506 37 95.14C50.13 96.3 63.32 94.44 76.38 92.58C95.76 89.83 115.15 87.07 134.48 83.98C141.42 82.87 148.36 81.72 155.34 80.84C205.57 74.49 256.71 82.21 307.07 76.91C312.16 76.37 317.34 75.67 321.97 73.5C333.69 68 339.49 53.5 337.07 40.76C334.65 28.02 325.31 17.43 314.07 10.93C304.65 5.46002 294.49 3.25002 284 0.930018C274.26 -1.33998 268.32 1.65997 258.94 5.25997Z" fill="#AE6E79"/>
</svg>
